<svg width="140" height="64" viewBox="0 0 140 64" fill="none" xmlns="http://www.w3.org/2000/svg">
<g clip-path="url(#clip0_121_518)">
<path fill-rule="evenodd" clip-rule="evenodd" d="M115.46 19.4253V35.5923H124.783V40.7806H108.842V19.4253H115.46Z" fill="white"/>
<path fill-rule="evenodd" clip-rule="evenodd" d="M99.6743 19.4253V24.2287H87.07V27.6848H98.6915V32.4881H87.07V35.9773H100.03V40.7806H80.4541V19.4253H99.6743Z" fill="white"/>
<path fill-rule="evenodd" clip-rule="evenodd" d="M64.9957 40.7806H59.0101L50.6701 19.4253H57.5886L62.0723 32.3589L66.4727 19.4253H73.2802L64.9957 40.7806Z" fill="white"/>
<path fill-rule="evenodd" clip-rule="evenodd" d="M43.3878 19.4253V24.2287H30.7835V27.6848H42.405V32.4881H30.7835V35.9773H43.7432V40.7806H24.1676V19.4253H43.3878Z" fill="white"/>
<path fill-rule="evenodd" clip-rule="evenodd" d="M7.1518 19.4253V35.5923H16.4746V40.7806H0.535904V19.4253H7.1518Z" fill="white"/>
<path fill-rule="evenodd" clip-rule="evenodd" d="M92.906 57.6157L90.5323 57.7972C90.4888 57.6048 90.3801 57.433 90.2241 57.3106C89.9586 57.1603 89.6548 57.0897 89.3496 57.1071C88.5944 57.1071 88.2168 57.3069 88.2168 57.7065C88.2132 57.7797 88.2284 57.8527 88.2609 57.9185C88.2934 57.9844 88.3423 58.041 88.4028 58.0832C88.6296 58.2093 88.8766 58.2958 89.133 58.3389L91.0764 58.7788C91.6411 58.8696 92.1674 59.1197 92.5923 59.4991C92.9192 59.8601 93.0879 60.3348 93.0615 60.8189C93.0637 61.2438 92.9537 61.6618 92.7422 62.0314C92.5433 62.3883 92.2482 62.6834 91.8899 62.8838C91.0413 63.303 90.1 63.5043 89.1524 63.4694C87.7199 63.4694 86.7297 63.1688 86.1818 62.5676C85.8152 62.1354 85.5863 61.6054 85.5238 61.0444L87.9725 60.9536C88.0891 61.5338 88.5666 61.8225 89.4106 61.8225C89.7331 61.8394 90.0538 61.7651 90.3351 61.608C90.4399 61.5498 90.5269 61.4646 90.587 61.3616C90.6471 61.2585 90.678 61.1414 90.6766 61.0224C90.6766 60.6924 90.399 60.4725 89.8743 60.368L87.9725 59.9968C86.5455 59.7164 85.832 59.0171 85.832 57.8989C85.8195 57.546 85.8984 57.1957 86.0612 56.8814C86.224 56.5672 86.4653 56.2994 86.7621 56.1035C87.3839 55.6746 88.2501 55.4629 89.3607 55.4629C90.6341 55.4629 91.5595 55.692 92.137 56.1503C92.5721 56.5241 92.8471 57.0482 92.906 57.6157Z" fill="white"/>
<path fill-rule="evenodd" clip-rule="evenodd" d="M83.447 57.6157L81.0732 57.7972C81.0289 57.6045 80.9191 57.4327 80.7623 57.3105C80.4977 57.1606 80.1949 57.0899 79.8905 57.1071C79.1354 57.1071 78.7578 57.3069 78.7578 57.7065C78.7537 57.7798 78.7686 57.8529 78.8012 57.9189C78.8337 57.9848 78.8829 58.0414 78.9438 58.0832C79.1704 58.2098 79.4174 58.2963 79.674 58.3389L81.6174 58.7788C82.1821 58.8696 82.7084 59.1197 83.1332 59.4991C83.4591 59.8607 83.6277 60.3349 83.6024 60.8189C83.6047 61.2437 83.4946 61.6618 83.2831 62.0314C83.0845 62.3893 82.7882 62.6847 82.4281 62.8838C81.5806 63.3033 80.6402 63.5047 79.6934 63.4694C78.2609 63.4694 77.2707 63.1688 76.7228 62.5676C76.3562 62.1354 76.1272 61.6054 76.0648 61.0444L78.5107 60.9536C78.6273 61.5347 79.1076 61.8243 79.9516 61.8225C80.2741 61.8394 80.5948 61.765 80.8761 61.608C80.9806 61.5496 81.0672 61.4644 81.1268 61.3613C81.1864 61.2582 81.2168 61.1411 81.2148 61.0224C81.2148 60.6924 80.9372 60.4725 80.4153 60.368L78.5107 59.9968C77.0874 59.7164 76.3748 59.0171 76.373 57.8989C76.3605 57.546 76.4394 57.1957 76.6022 56.8814C76.765 56.5672 77.0062 56.2994 77.303 56.1035C77.9249 55.6746 78.7883 55.4629 79.8989 55.4629C81.1759 55.4629 82.1014 55.692 82.6751 56.1503C83.1105 56.5244 83.3863 57.0481 83.447 57.6157Z" fill="white"/>
<path fill-rule="evenodd" clip-rule="evenodd" d="M73.8521 55.6992V57.3902H69.113V58.6082H73.4829V60.2991H69.113V61.5309H73.9882V63.2218H66.6255V55.6992H73.8521Z" fill="white"/>
<path fill-rule="evenodd" clip-rule="evenodd" d="M63.9408 55.6992V63.2218H61.928L58.6575 59.1828V63.2218H56.281V55.6992H58.3077L61.5671 59.7575V55.6992H63.9408Z" fill="white"/>
<path fill-rule="evenodd" clip-rule="evenodd" d="M54.3599 55.6992V57.3902H51.9445V63.2218H49.4542V57.3902H47.0277V55.6992H54.3599Z" fill="white"/>
<path d="M45.0539 55.6992H42.5663V63.2218H45.0539V55.6992Z" fill="white"/>
<path fill-rule="evenodd" clip-rule="evenodd" d="M40.3035 55.6992V57.3902H36.0669V58.8336H39.9648V60.5246H36.0669V63.2218H33.5793V55.6992H40.3035Z" fill="white"/>
<path d="M125.977 0V4.14899H135.755V18.0917H140V4.14899V3.8163V0H125.977Z" fill="#E7490F"/>
</g>
<defs>
<clipPath id="clip0_121_518">
<rect width="140" height="64" fill="white"/>
</clipPath>
</defs>
</svg>
